# Blender v2.79 (sub 0) OBJ File: ''
# www.blender.org
mtllib Coin.mtl
o Cube_Cube.002
v 0.150660 0.159392 -0.041771
v 0.150660 0.012199 -0.041771
v 0.150660 0.159392 0.041771
v 0.150660 0.012199 0.041771
v -0.137769 0.159392 -0.041771
v -0.137769 0.012199 -0.041771
v -0.137769 0.159392 0.041771
v -0.137769 0.012199 0.041771
v 0.124171 0.159392 0.041771
v 0.124171 0.159392 -0.041771
v 0.124171 0.012199 -0.041771
v 0.124171 0.012199 0.041771
v -0.111281 0.159392 0.041771
v -0.111281 0.012199 0.041771
v -0.111281 0.159392 -0.041771
v -0.111281 0.012199 -0.041771
v 0.124171 0.207903 0.041771
v 0.124171 0.207903 -0.041771
v 0.124171 -0.036311 -0.041771
v 0.124171 -0.036311 0.041771
v -0.111281 0.207903 0.041771
v -0.111281 -0.036311 0.041771
v -0.111281 0.207903 -0.041771
v -0.111281 -0.036311 -0.041771
v 0.104107 0.207903 0.041771
v 0.104107 0.207903 -0.041771
v 0.104107 -0.036311 -0.041771
v 0.104107 -0.036311 0.041771
v -0.091216 0.207903 0.041771
v -0.091216 -0.036311 0.041771
v -0.091216 0.207903 -0.041771
v -0.091216 -0.036311 -0.041771
v 0.104107 0.231423 0.041771
v 0.104107 0.231423 -0.041771
v 0.104107 -0.059832 -0.041771
v 0.104107 -0.059832 0.041771
v -0.091217 0.231423 0.041771
v -0.091217 -0.059832 0.041771
v -0.091217 0.231423 -0.041771
v -0.091217 -0.059832 -0.041771
v 0.067510 0.231423 0.041771
v 0.067510 0.231423 -0.041771
v 0.067510 -0.059832 -0.041771
v 0.067510 -0.059832 0.041771
v -0.054619 0.231423 0.041771
v -0.054619 -0.059832 0.041771
v -0.054619 0.231423 -0.041771
v -0.054619 -0.059832 -0.041771
v 0.066079 0.247665 0.041357
v 0.066079 0.247665 -0.041357
v 0.066079 -0.076074 -0.041357
v 0.066079 -0.076074 0.041357
v -0.053188 0.247665 0.041357
v -0.053188 -0.076074 0.041357
v -0.053188 0.247665 -0.041357
v -0.053188 -0.076074 -0.041357
v 0.067510 0.247665 0.041771
v 0.067510 0.247665 -0.041771
v 0.067510 -0.076074 -0.041771
v 0.067510 -0.076074 0.041771
v -0.054619 0.247665 0.041771
v -0.054619 -0.076074 0.041771
v -0.054619 0.247665 -0.041771
v -0.054619 -0.076074 -0.041771
v 0.118870 0.143169 -0.065754
v 0.118870 0.028422 -0.065754
v 0.118870 0.143169 0.065754
v 0.118870 0.028422 0.065754
v -0.105980 0.143169 -0.065754
v -0.105980 0.028422 -0.065754
v -0.105980 0.143169 0.065754
v -0.105980 0.028422 0.065754
v 0.098221 0.143169 0.065754
v 0.098221 0.143169 -0.065754
v 0.098221 0.028422 -0.065754
v 0.098221 0.028422 0.065754
v -0.085330 0.143169 0.065754
v -0.085330 0.028422 0.065754
v -0.085330 0.143169 -0.065754
v -0.085330 0.028422 -0.065754
v 0.098221 0.180986 0.065754
v 0.098221 0.180986 -0.065754
v 0.098221 -0.009395 -0.065754
v 0.098221 -0.009395 0.065754
v -0.085330 0.180986 0.065754
v -0.085330 -0.009395 0.065754
v -0.085330 0.180986 -0.065754
v -0.085330 -0.009395 -0.065754
v 0.082579 0.180986 0.065754
v 0.082579 0.180986 -0.065754
v 0.082579 -0.009395 -0.065754
v 0.082579 -0.009395 0.065754
v -0.069689 0.180986 0.065754
v -0.069689 -0.009395 0.065754
v -0.069689 0.180986 -0.065754
v -0.069689 -0.009395 -0.065754
v 0.082579 0.199322 0.065754
v 0.082579 0.199322 -0.065754
v 0.082579 -0.027730 -0.065754
v 0.082579 -0.027730 0.065754
v -0.069689 0.199322 0.065754
v -0.069689 -0.027730 0.065754
v -0.069689 0.199322 -0.065754
v -0.069689 -0.027730 -0.065754
v 0.054049 0.199322 0.065754
v 0.054049 0.199322 -0.065754
v 0.054049 -0.027730 -0.065754
v 0.054049 -0.027730 0.065754
v -0.041158 0.199322 0.065754
v -0.041158 -0.027730 0.065754
v -0.041158 0.199322 -0.065754
v -0.041158 -0.027730 -0.065754
v 0.052934 0.211984 0.065101
v 0.052934 0.211984 -0.065102
v 0.052934 -0.040392 -0.065102
v 0.052934 -0.040392 0.065101
v -0.040043 0.211984 0.065101
v -0.040043 -0.040392 0.065101
v -0.040043 0.211984 -0.065102
v -0.040043 -0.040392 -0.065102
v 0.054049 0.211984 0.065754
v 0.054049 0.211984 -0.065754
v 0.054049 -0.040392 -0.065754
v 0.054049 -0.040392 0.065754
v -0.041158 0.211984 0.065754
v -0.041158 -0.040392 0.065754
v -0.041158 0.211984 -0.065754
v -0.041158 -0.040392 -0.065754
vt 0.394645 0.924295
vt 0.394485 0.924295
vt 0.394485 0.924063
vt 0.394645 0.924063
vt 0.366509 0.925831
vt 0.354849 0.925831
vt 0.354849 0.921143
vt 0.366509 0.921143
vt 0.394485 0.924295
vt 0.394645 0.924295
vt 0.394645 0.924063
vt 0.394485 0.924063
vt 0.354849 0.925831
vt 0.366509 0.925831
vt 0.366509 0.921143
vt 0.354849 0.921143
vt 0.394485 0.924063
vt 0.394645 0.924063
vt 0.365438 0.925831
vt 0.355920 0.925831
vt 0.394485 0.923986
vt 0.394645 0.923986
vt 0.355920 0.921143
vt 0.355920 0.919598
vt 0.365438 0.919598
vt 0.365438 0.921143
vt 0.365438 0.921143
vt 0.355920 0.921143
vt 0.394645 0.924295
vt 0.394485 0.924295
vt 0.394485 0.924295
vt 0.394645 0.924295
vt 0.355920 0.925831
vt 0.365438 0.925831
vt 0.394645 0.924063
vt 0.394485 0.924063
vt 0.394645 0.923986
vt 0.394645 0.923986
vt 0.394485 0.923986
vt 0.394485 0.923986
vt 0.365438 0.919598
vt 0.364627 0.919598
vt 0.356731 0.919598
vt 0.355920 0.919598
vt 0.355920 0.927375
vt 0.365438 0.927375
vt 0.394485 0.924372
vt 0.394645 0.924372
vt 0.365438 0.927375
vt 0.355920 0.927375
vt 0.394645 0.924372
vt 0.394485 0.924372
vt 0.364627 0.927375
vt 0.364627 0.928124
vt 0.356731 0.928124
vt 0.356731 0.927375
vt 0.394485 0.924372
vt 0.394485 0.924409
vt 0.394645 0.924409
vt 0.394645 0.924372
vt 0.356731 0.919598
vt 0.364627 0.919598
vt 0.394485 0.923986
vt 0.394645 0.923986
vt 0.356731 0.927375
vt 0.364627 0.927375
vt 0.394645 0.924372
vt 0.394485 0.924372
vt 0.394485 0.924409
vt 0.394645 0.924409
vt 0.356731 0.928124
vt 0.358210 0.928124
vt 0.363148 0.928124
vt 0.364627 0.928124
vt 0.394645 0.924409
vt 0.394485 0.924409
vt 0.364627 0.918849
vt 0.356731 0.918849
vt 0.394645 0.923949
vt 0.394485 0.923949
vt 0.356731 0.918849
vt 0.364627 0.918849
vt 0.394485 0.923949
vt 0.394645 0.923949
vt 0.358210 0.918849
vt 0.358210 0.918332
vt 0.363148 0.918332
vt 0.363148 0.918849
vt 0.394645 0.923949
vt 0.394645 0.923924
vt 0.394485 0.923924
vt 0.394485 0.923949
vt 0.363148 0.928124
vt 0.358210 0.928124
vt 0.394645 0.924409
vt 0.394485 0.924409
vt 0.363148 0.918849
vt 0.358210 0.918849
vt 0.394485 0.923949
vt 0.394645 0.923949
vt 0.394488 0.924047
vt 0.394637 0.924047
vt 0.394637 0.924180
vt 0.394488 0.924180
vt 0.394488 0.924199
vt 0.394637 0.924199
vt 0.394637 0.924066
vt 0.394488 0.924066
vt 0.394485 0.923924
vt 0.394645 0.923924
vt 0.358210 0.928642
vt 0.363148 0.928642
vt 0.394484 0.924260
vt 0.394484 0.924286
vt 0.394646 0.924286
vt 0.394646 0.924260
vt 0.363148 0.928642
vt 0.358210 0.928642
vt 0.394646 0.924182
vt 0.394646 0.924208
vt 0.394484 0.924208
vt 0.394484 0.924182
vt 0.363148 0.918332
vt 0.358210 0.918332
vt 0.394416 0.924155
vt 0.394413 0.924155
vt 0.394471 0.923984
vt 0.394473 0.923985
vt 0.394504 0.924018
vt 0.394502 0.924017
vt 0.394461 0.924139
vt 0.399371 0.924210
vt 0.399430 0.924243
vt 0.393800 0.923055
vt 0.393872 0.923049
vt 0.394941 0.922683
vt 0.394890 0.922687
vt 0.398892 0.923531
vt 0.398849 0.923508
vt 0.394717 0.924037
vt 0.394720 0.924036
vt 0.394662 0.924208
vt 0.394659 0.924206
vt 0.394636 0.924175
vt 0.394638 0.924176
vt 0.394679 0.924054
vt 0.394677 0.924054
vt 0.395173 0.919224
vt 0.395114 0.919191
vt 0.400744 0.920379
vt 0.400672 0.920385
vt 0.399774 0.920788
vt 0.399826 0.920785
vt 0.395824 0.919940
vt 0.395866 0.919963
vt 0.399053 0.926223
vt 0.395435 0.926223
vt 0.395435 0.920982
vt 0.399053 0.920982
vt 0.368032 0.926338
vt 0.352785 0.926338
vt 0.352785 0.920209
vt 0.368032 0.920209
vt 0.395435 0.926223
vt 0.399053 0.926223
vt 0.399053 0.920982
vt 0.395435 0.920982
vt 0.352785 0.926338
vt 0.368032 0.926338
vt 0.368032 0.920209
vt 0.352785 0.920209
vt 0.395435 0.920982
vt 0.399053 0.920982
vt 0.366631 0.926338
vt 0.354186 0.926338
vt 0.395435 0.919255
vt 0.399053 0.919255
vt 0.354186 0.920209
vt 0.354186 0.918189
vt 0.366631 0.918189
vt 0.366631 0.920209
vt 0.366631 0.920209
vt 0.354186 0.920209
vt 0.399053 0.926223
vt 0.395435 0.926223
vt 0.395435 0.926223
vt 0.399053 0.926223
vt 0.354186 0.926338
vt 0.366631 0.926338
vt 0.399053 0.920982
vt 0.395435 0.920982
vt 0.399053 0.919255
vt 0.399053 0.919255
vt 0.395435 0.919255
vt 0.395435 0.919255
vt 0.366631 0.918189
vt 0.365571 0.918189
vt 0.355246 0.918189
vt 0.354186 0.918189
vt 0.354186 0.928358
vt 0.366631 0.928358
vt 0.395435 0.927951
vt 0.399053 0.927951
vt 0.366631 0.928358
vt 0.354186 0.928358
vt 0.399053 0.927951
vt 0.395435 0.927951
vt 0.365571 0.928358
vt 0.365571 0.929337
vt 0.355246 0.929337
vt 0.355246 0.928358
vt 0.395435 0.927951
vt 0.395435 0.928788
vt 0.399053 0.928788
vt 0.399053 0.927951
vt 0.355246 0.918189
vt 0.365571 0.918189
vt 0.395435 0.919255
vt 0.399053 0.919255
vt 0.355246 0.928358
vt 0.365571 0.928358
vt 0.399053 0.927951
vt 0.395435 0.927951
vt 0.395435 0.928788
vt 0.399053 0.928788
vt 0.355246 0.929337
vt 0.357181 0.929337
vt 0.363636 0.929337
vt 0.365571 0.929337
vt 0.399053 0.928788
vt 0.395435 0.928788
vt 0.365571 0.917209
vt 0.355246 0.917209
vt 0.399053 0.918417
vt 0.395435 0.918417
vt 0.355246 0.917209
vt 0.365571 0.917209
vt 0.395435 0.918417
vt 0.399053 0.918417
vt 0.357181 0.917209
vt 0.357181 0.916533
vt 0.363636 0.916533
vt 0.363636 0.917209
vt 0.399053 0.918417
vt 0.399053 0.917839
vt 0.395435 0.917839
vt 0.395435 0.918417
vt 0.363636 0.929337
vt 0.357181 0.929337
vt 0.399053 0.928788
vt 0.395435 0.928788
vt 0.363636 0.917209
vt 0.357181 0.917209
vt 0.395435 0.918417
vt 0.399053 0.918417
vt 0.395505 0.920615
vt 0.398876 0.920615
vt 0.398876 0.923620
vt 0.395505 0.923620
vt 0.395505 0.924047
vt 0.398876 0.924047
vt 0.398876 0.921042
vt 0.395505 0.921042
vt 0.395435 0.917839
vt 0.399053 0.917839
vt 0.357181 0.930014
vt 0.363636 0.930014
vt 0.395415 0.925433
vt 0.395415 0.926018
vt 0.399077 0.926018
vt 0.399077 0.925433
vt 0.363636 0.930014
vt 0.357181 0.930014
vt 0.399073 0.923663
vt 0.399073 0.924249
vt 0.395411 0.924249
vt 0.395411 0.923663
vt 0.363636 0.916533
vt 0.357181 0.916533
vt 0.393872 0.923049
vt 0.393800 0.923055
vt 0.395114 0.919191
vt 0.395173 0.919224
vt 0.395866 0.919963
vt 0.395824 0.919940
vt 0.394890 0.922687
vt 0.394941 0.922683
vt 0.399371 0.924210
vt 0.399430 0.924243
vt 0.398892 0.923531
vt 0.398849 0.923508
vt 0.400672 0.920385
vt 0.400744 0.920379
vt 0.399826 0.920785
vt 0.399774 0.920788
vn 1.0000 0.0000 0.0000
vn 0.0000 0.0000 1.0000
vn -1.0000 0.0000 0.0000
vn 0.0000 0.0000 -1.0000
vn 0.0000 -1.0000 0.0000
vn 0.0000 -0.9088 -0.4172
vn 0.0000 0.8815 -0.4722
vn 0.0000 1.0000 0.0000
vn 0.0000 0.8815 0.4722
vn 0.0000 -0.9088 0.4172
vn 0.0000 0.5472 -0.8370
vn 0.0000 0.5472 0.8370
vn 0.0000 -0.5343 -0.8453
vn 0.0000 -0.5343 0.8453
vn 0.0000 -0.5508 -0.8346
vn 0.0000 -0.5508 0.8346
vn 0.0000 0.6925 -0.7214
vn 0.0000 0.6925 0.7214
vn 0.0000 -0.9025 0.4307
vn 0.0000 0.4529 -0.8916
vn 0.0000 0.4641 0.8858
vn 0.0000 -0.4641 0.8858
vn 0.0000 0.1548 -0.9880
vn 0.0000 0.1548 0.9880
vn 0.0000 -0.1880 -0.9822
vn 0.0000 -0.1880 0.9822
vn 0.0000 -0.2461 -0.9692
vn 0.0000 -0.2461 0.9692
vn 0.0000 0.4915 -0.8709
vn 0.0000 0.4915 0.8709
usemtl None
s off
f 65/1/1 67/2/1 68/3/1 66/4/1
f 67/5/2 71/6/2 72/7/2 68/8/2
f 71/9/3 69/10/3 70/11/3 72/12/3
f 69/13/4 65/14/4 66/15/4 70/16/4
f 68/3/5 76/17/5 75/18/5 66/4/5
f 67/5/6 73/19/6 77/20/6 71/6/6
f 76/17/1 84/21/1 83/22/1 75/18/1
f 78/23/2 86/24/2 84/25/2 76/26/2
f 66/15/7 75/27/7 80/28/7 70/16/7
f 65/1/8 74/29/8 73/30/8 67/2/8
f 71/9/8 77/31/8 79/32/8 69/10/8
f 72/7/9 78/23/9 76/26/9 68/8/9
f 69/13/10 79/33/10 74/34/10 65/14/10
f 70/11/5 80/35/5 78/36/5 72/12/5
f 88/37/5 96/38/5 94/39/5 86/40/5
f 83/41/11 91/42/11 96/43/11 88/44/11
f 79/33/4 87/45/4 82/46/4 74/34/4
f 77/31/3 85/47/3 87/48/3 79/32/3
f 73/19/2 81/49/2 85/50/2 77/20/2
f 74/29/1 82/51/1 81/52/1 73/30/1
f 75/27/4 83/41/4 88/44/4 80/28/4
f 80/35/3 88/37/3 86/40/3 78/36/3
f 89/53/2 97/54/2 101/55/2 93/56/2
f 93/57/3 101/58/3 103/59/3 95/60/3
f 86/24/12 94/61/12 92/62/12 84/25/12
f 84/21/5 92/63/5 91/64/5 83/22/5
f 87/45/13 95/65/13 90/66/13 82/46/13
f 85/47/8 93/57/8 95/60/8 87/48/8
f 81/49/14 89/53/14 93/56/14 85/50/14
f 82/51/8 90/67/8 89/68/8 81/52/8
f 101/58/8 109/69/8 111/70/8 103/59/8
f 103/71/15 111/72/15 106/73/15 98/74/15
f 90/67/1 98/75/1 97/76/1 89/68/1
f 91/42/4 99/77/4 104/78/4 96/43/4
f 96/38/3 104/79/3 102/80/3 94/39/3
f 94/61/2 102/81/2 100/82/2 92/62/2
f 92/63/1 100/83/1 99/84/1 91/64/1
f 95/65/4 103/71/4 98/74/4 90/66/4
f 110/85/2 126/86/2 124/87/2 108/88/2
f 112/89/3 128/90/3 126/91/3 110/92/3
f 97/54/16 105/93/16 109/94/16 101/55/16
f 98/75/8 106/95/8 105/96/8 97/76/8
f 99/77/17 107/97/17 112/98/17 104/78/17
f 104/79/5 112/89/5 110/92/5 102/80/5
f 102/81/18 110/85/18 108/88/18 100/82/18
f 100/83/5 108/99/5 107/100/5 99/84/5
f 113/101/8 114/102/8 119/103/8 117/104/8
f 118/105/5 120/106/5 115/107/5 116/108/5
f 108/99/1 124/109/1 123/110/1 107/100/1
f 111/72/4 127/111/4 122/112/4 106/73/4
f 109/113/3 125/114/3 127/115/3 111/116/3
f 105/93/2 121/117/2 125/118/2 109/94/2
f 106/119/1 122/120/1 121/121/1 105/122/1
f 107/97/4 123/123/4 128/124/4 112/98/4
f 113/125/8 121/126/8 122/127/8 114/128/8
f 115/129/5 123/130/5 124/131/5 116/108/5
f 117/132/8 125/133/8 121/134/8 113/135/8
f 116/136/5 124/137/5 126/138/5 118/139/5
f 119/140/8 127/141/8 125/142/8 117/143/8
f 118/144/5 126/145/5 128/146/5 120/147/5
f 114/148/8 122/149/8 127/150/8 119/151/8
f 120/152/5 128/153/5 123/154/5 115/155/5
usemtl None_SNES_-_Super_Mario_All-Stars_Super_Mario_Bros_3_-_Stage_Tileset
f 1/156/1 3/157/1 4/158/1 2/159/1
f 3/160/2 7/161/2 8/162/2 4/163/2
f 7/164/3 5/165/3 6/166/3 8/167/3
f 5/168/4 1/169/4 2/170/4 6/171/4
f 4/158/5 12/172/5 11/173/5 2/159/5
f 3/160/19 9/174/19 13/175/19 7/161/19
f 12/172/1 20/176/1 19/177/1 11/173/1
f 14/178/2 22/179/2 20/180/2 12/181/2
f 2/170/20 11/182/20 16/183/20 6/171/20
f 1/156/8 10/184/8 9/185/8 3/157/8
f 7/164/8 13/186/8 15/187/8 5/165/8
f 8/162/21 14/178/21 12/181/21 4/163/21
f 5/168/22 15/188/22 10/189/22 1/169/22
f 6/166/5 16/190/5 14/191/5 8/167/5
f 24/192/5 32/193/5 30/194/5 22/195/5
f 19/196/23 27/197/23 32/198/23 24/199/23
f 15/188/4 23/200/4 18/201/4 10/189/4
f 13/186/3 21/202/3 23/203/3 15/187/3
f 9/174/2 17/204/2 21/205/2 13/175/2
f 10/184/1 18/206/1 17/207/1 9/185/1
f 11/182/4 19/196/4 24/199/4 16/183/4
f 16/190/3 24/192/3 22/195/3 14/191/3
f 25/208/2 33/209/2 37/210/2 29/211/2
f 29/212/3 37/213/3 39/214/3 31/215/3
f 22/179/24 30/216/24 28/217/24 20/180/24
f 20/176/5 28/218/5 27/219/5 19/177/5
f 23/200/25 31/220/25 26/221/25 18/201/25
f 21/202/8 29/212/8 31/215/8 23/203/8
f 17/204/26 25/208/26 29/211/26 21/205/26
f 18/206/8 26/222/8 25/223/8 17/207/8
f 37/213/8 45/224/8 47/225/8 39/214/8
f 39/226/27 47/227/27 42/228/27 34/229/27
f 26/222/1 34/230/1 33/231/1 25/223/1
f 27/197/4 35/232/4 40/233/4 32/198/4
f 32/193/3 40/234/3 38/235/3 30/194/3
f 30/216/2 38/236/2 36/237/2 28/217/2
f 28/218/1 36/238/1 35/239/1 27/219/1
f 31/220/4 39/226/4 34/229/4 26/221/4
f 46/240/2 62/241/2 60/242/2 44/243/2
f 48/244/3 64/245/3 62/246/3 46/247/3
f 33/209/28 41/248/28 45/249/28 37/210/28
f 34/230/8 42/250/8 41/251/8 33/231/8
f 35/232/29 43/252/29 48/253/29 40/233/29
f 40/234/5 48/244/5 46/247/5 38/235/5
f 38/236/30 46/240/30 44/243/30 36/237/30
f 36/238/5 44/254/5 43/255/5 35/239/5
f 49/256/8 50/257/8 55/258/8 53/259/8
f 54/260/5 56/261/5 51/262/5 52/263/5
f 44/254/1 60/264/1 59/265/1 43/255/1
f 47/227/4 63/266/4 58/267/4 42/228/4
f 45/268/3 61/269/3 63/270/3 47/271/3
f 41/248/2 57/272/2 61/273/2 45/249/2
f 42/274/1 58/275/1 57/276/1 41/277/1
f 43/252/4 59/278/4 64/279/4 48/253/4
f 49/280/8 57/281/8 58/282/8 50/283/8
f 51/284/5 59/285/5 60/286/5 52/287/5
f 53/288/8 61/289/8 57/281/8 49/280/8
f 52/287/5 60/286/5 62/290/5 54/291/5
f 55/292/8 63/293/8 61/289/8 53/288/8
f 54/291/5 62/290/5 64/294/5 56/295/5
f 50/283/8 58/282/8 63/293/8 55/292/8
f 56/295/5 64/294/5 59/285/5 51/284/5
o Cube.001_Cube.003
v 0.121011 0.144261 -0.089492
v 0.121011 0.027330 -0.089492
v 0.121011 0.144261 0.089492
v 0.121011 0.027330 0.089492
v -0.108120 0.144261 -0.089492
v -0.108120 0.027330 -0.089492
v -0.108120 0.144261 0.089492
v -0.108120 0.027330 0.089492
v 0.099968 0.144262 0.089492
v 0.099968 0.144262 -0.089492
v 0.099968 0.027330 -0.089492
v 0.099968 0.027330 0.089492
v -0.087077 0.144262 0.089492
v -0.087077 0.027330 0.089492
v -0.087077 0.144262 -0.089492
v -0.087077 0.027330 -0.089492
v 0.099968 0.182799 0.089492
v 0.099968 0.182799 -0.089492
v 0.099968 -0.011207 -0.089492
v 0.099968 -0.011207 0.089492
v -0.087077 0.182799 0.089492
v -0.087077 -0.011207 0.089492
v -0.087077 0.182799 -0.089492
v -0.087077 -0.011207 -0.089492
v 0.084029 0.182799 0.089492
v 0.084029 0.182799 -0.089492
v 0.084029 -0.011207 -0.089492
v 0.084029 -0.011207 0.089492
v -0.071138 0.182799 0.089492
v -0.071138 -0.011207 0.089492
v -0.071138 0.182799 -0.089492
v -0.071138 -0.011207 -0.089492
v 0.084029 0.201484 0.089492
v 0.084029 0.201484 -0.089492
v 0.084029 -0.029892 -0.089492
v 0.084029 -0.029892 0.089492
v -0.071138 0.201484 0.089492
v -0.071138 -0.029892 0.089492
v -0.071138 0.201484 -0.089492
v -0.071138 -0.029892 -0.089492
v 0.054955 0.201484 0.089492
v 0.054955 0.201484 -0.089492
v 0.054955 -0.029892 -0.089492
v 0.054955 -0.029892 0.089492
v -0.042065 0.201484 0.089492
v -0.042065 -0.029892 0.089492
v -0.042065 0.201484 -0.089492
v -0.042065 -0.029892 -0.089492
v 0.054956 0.214387 0.089492
v 0.054956 0.214387 -0.089492
v 0.054956 -0.042795 -0.089492
v 0.054956 -0.042795 0.089492
v -0.042065 0.214387 0.089492
v -0.042065 -0.042795 0.089492
v -0.042065 0.214387 -0.089492
v -0.042065 -0.042795 -0.089492
vt 0.394740 0.923282
vt 0.394432 0.923282
vt 0.394432 0.922725
vt 0.394740 0.922725
vt 0.366021 0.925784
vt 0.354829 0.925784
vt 0.354829 0.921285
vt 0.366021 0.921285
vt 0.394432 0.923282
vt 0.394740 0.923282
vt 0.394740 0.922725
vt 0.394432 0.922725
vt 0.354829 0.925784
vt 0.366021 0.925784
vt 0.366021 0.921285
vt 0.354829 0.921285
vt 0.394432 0.922725
vt 0.394740 0.922725
vt 0.364993 0.925784
vt 0.355857 0.925784
vt 0.394432 0.922541
vt 0.394740 0.922541
vt 0.355857 0.921285
vt 0.355857 0.919802
vt 0.364993 0.919802
vt 0.364993 0.921285
vt 0.364993 0.921285
vt 0.355857 0.921285
vt 0.394740 0.923282
vt 0.394432 0.923282
vt 0.394432 0.923282
vt 0.394740 0.923282
vt 0.355857 0.925784
vt 0.364993 0.925784
vt 0.394740 0.922725
vt 0.394432 0.922725
vt 0.394740 0.922541
vt 0.394740 0.922541
vt 0.394432 0.922541
vt 0.394432 0.922541
vt 0.364993 0.919802
vt 0.364214 0.919802
vt 0.356635 0.919802
vt 0.355857 0.919802
vt 0.355857 0.927266
vt 0.364993 0.927266
vt 0.394432 0.923465
vt 0.394740 0.923465
vt 0.364993 0.927266
vt 0.355857 0.927266
vt 0.394740 0.923465
vt 0.394432 0.923465
vt 0.364214 0.927266
vt 0.364214 0.927985
vt 0.356635 0.927985
vt 0.356635 0.927266
vt 0.394432 0.923465
vt 0.394432 0.923555
vt 0.394740 0.923555
vt 0.394740 0.923465
vt 0.356635 0.919802
vt 0.364214 0.919802
vt 0.394432 0.922541
vt 0.394740 0.922541
vt 0.356635 0.927266
vt 0.364214 0.927266
vt 0.394740 0.923465
vt 0.394432 0.923465
vt 0.394432 0.923555
vt 0.394740 0.923555
vt 0.356635 0.927985
vt 0.358055 0.927985
vt 0.362794 0.927985
vt 0.364214 0.927985
vt 0.394740 0.923555
vt 0.394432 0.923555
vt 0.364214 0.919083
vt 0.356635 0.919083
vt 0.394740 0.922452
vt 0.394432 0.922452
vt 0.356635 0.919083
vt 0.364214 0.919083
vt 0.394432 0.922452
vt 0.394740 0.922452
vt 0.358055 0.919083
vt 0.358055 0.918587
vt 0.362794 0.918587
vt 0.362794 0.919083
vt 0.394740 0.922452
vt 0.394740 0.922391
vt 0.394432 0.922391
vt 0.394432 0.922452
vt 0.362794 0.927985
vt 0.358055 0.927985
vt 0.394740 0.923555
vt 0.394432 0.923555
vt 0.362794 0.919083
vt 0.358055 0.919083
vt 0.394432 0.922452
vt 0.394740 0.922452
vt 0.394432 0.923616
vt 0.394740 0.923616
vt 0.394740 0.923616
vt 0.394432 0.923616
vt 0.394740 0.922391
vt 0.394432 0.922391
vt 0.358055 0.928482
vt 0.362794 0.928482
vt 0.362794 0.928482
vt 0.358055 0.928482
vt 0.362794 0.918587
vt 0.358055 0.918587
vn 1.0000 0.0000 0.0000
vn 0.0000 0.0000 1.0000
vn -1.0000 0.0000 0.0000
vn 0.0000 0.0000 -1.0000
vn 0.0000 -1.0000 0.0000
vn 0.0000 -0.8572 0.5149
vn 0.0000 0.7156 -0.6985
vn 0.0000 1.0000 0.0000
vn 0.0000 0.7156 0.6985
vn 0.0000 -0.8572 -0.5149
vn 0.0000 0.4581 -0.8889
vn 0.0000 0.4581 0.8889
vn 0.0000 -0.3882 -0.9216
vn 0.0000 -0.3882 0.9216
vn 0.0000 -0.4503 -0.8929
vn 0.0000 -0.4503 0.8929
vn 0.0000 0.7102 -0.7040
vn 0.0000 0.7102 0.7040
usemtl None_SNES_-_Super_Mario_All-Stars_Super_Mario_Bros_3_-_Stage_Til.000
s off
f 129/296/31 131/297/31 132/298/31 130/299/31
f 131/300/32 135/301/32 136/302/32 132/303/32
f 135/304/33 133/305/33 134/306/33 136/307/33
f 133/308/34 129/309/34 130/310/34 134/311/34
f 132/298/35 140/312/35 139/313/35 130/299/35
f 131/300/36 137/314/36 141/315/36 135/301/36
f 140/312/31 148/316/31 147/317/31 139/313/31
f 142/318/32 150/319/32 148/320/32 140/321/32
f 130/310/37 139/322/37 144/323/37 134/311/37
f 129/296/38 138/324/38 137/325/38 131/297/38
f 135/304/38 141/326/38 143/327/38 133/305/38
f 136/302/39 142/318/39 140/321/39 132/303/39
f 133/308/40 143/328/40 138/329/40 129/309/40
f 134/306/35 144/330/35 142/331/35 136/307/35
f 152/332/35 160/333/35 158/334/35 150/335/35
f 147/336/41 155/337/41 160/338/41 152/339/41
f 143/328/34 151/340/34 146/341/34 138/329/34
f 141/326/33 149/342/33 151/343/33 143/327/33
f 137/314/32 145/344/32 149/345/32 141/315/32
f 138/324/31 146/346/31 145/347/31 137/325/31
f 139/322/34 147/336/34 152/339/34 144/323/34
f 144/330/33 152/332/33 150/335/33 142/331/33
f 153/348/32 161/349/32 165/350/32 157/351/32
f 157/352/33 165/353/33 167/354/33 159/355/33
f 150/319/42 158/356/42 156/357/42 148/320/42
f 148/316/35 156/358/35 155/359/35 147/317/35
f 151/340/43 159/360/43 154/361/43 146/341/43
f 149/342/38 157/352/38 159/355/38 151/343/38
f 145/344/44 153/348/44 157/351/44 149/345/44
f 146/346/38 154/362/38 153/363/38 145/347/38
f 165/353/38 173/364/38 175/365/38 167/354/38
f 167/366/45 175/367/45 170/368/45 162/369/45
f 154/362/31 162/370/31 161/371/31 153/363/31
f 155/337/34 163/372/34 168/373/34 160/338/34
f 160/333/33 168/374/33 166/375/33 158/334/33
f 158/356/32 166/376/32 164/377/32 156/357/32
f 156/358/31 164/378/31 163/379/31 155/359/31
f 159/360/34 167/366/34 162/369/34 154/361/34
f 174/380/32 182/381/32 180/382/32 172/383/32
f 176/384/33 184/385/33 182/386/33 174/387/33
f 161/349/46 169/388/46 173/389/46 165/350/46
f 162/370/38 170/390/38 169/391/38 161/371/38
f 163/372/47 171/392/47 176/393/47 168/373/47
f 168/374/35 176/384/35 174/387/35 166/375/35
f 166/376/48 174/380/48 172/383/48 164/377/48
f 164/378/35 172/394/35 171/395/35 163/379/35
f 177/396/38 178/397/38 183/398/38 181/399/38
f 182/386/35 184/385/35 179/400/35 180/401/35
f 172/394/31 180/401/31 179/400/31 171/395/31
f 175/367/34 183/402/34 178/403/34 170/368/34
f 173/364/33 181/399/33 183/398/33 175/365/33
f 169/388/32 177/404/32 181/405/32 173/389/32
f 170/390/31 178/397/31 177/396/31 169/391/31
f 171/392/34 179/406/34 184/407/34 176/393/34
